<svg width="668" height="612" viewBox="0 0 668 612" fill="none" xmlns="http://www.w3.org/2000/svg">
<path opacity="0.3" d="M367.249 89.8558L352.77 90.6831C351.108 85.2119 348.925 79.9266 346.216 74.8883L358.228 68.0616C361.506 66.1989 362.348 62.4299 360.11 59.6416L346.1 42.1855C343.857 39.3913 339.374 38.6309 336.086 40.4893L323.913 47.3692C319.29 43.3578 314.268 39.6791 308.896 36.384L315.315 25.223C317.046 22.2133 315.531 18.5582 311.931 17.0583L289.374 7.65864C285.76 6.15276 281.418 7.37443 279.678 10.3897L273.214 21.5868C266.892 20.0291 260.35 18.9375 253.656 18.3076L252.531 5.75106C252.229 2.38015 248.724 -0.189945 244.701 0.0110275L219.488 1.27007C215.448 1.47198 212.416 4.3764 212.719 7.75724L213.847 20.3511C207.282 21.6655 200.938 23.4265 194.887 25.6325L186.383 15.1332C184.091 12.3018 179.502 11.5242 176.134 13.397L155.032 25.1324C151.651 27.0126 150.777 30.837 153.081 33.6726L161.613 44.174C156.767 48.0516 152.34 52.2815 148.372 56.8078L134.72 51.2229C131.023 49.7107 126.579 50.9619 124.795 54.0188L113.625 73.1571C111.836 76.2209 113.393 79.927 117.099 81.4334L130.652 86.9417C128.802 92.3204 127.535 97.8905 126.835 103.59L111.829 104.447C107.722 104.681 104.637 107.636 104.943 111.046L106.854 132.372C107.159 135.782 110.739 138.348 114.845 138.103L129.728 137.216C131.407 142.809 133.638 148.204 136.407 153.345L124.164 160.265C120.764 162.186 119.885 166.035 122.201 168.859L136.667 186.501C138.978 189.319 143.599 190.041 146.987 188.115L159.135 181.211C163.902 185.299 169.093 189.025 174.635 192.352L168.286 203.351C166.511 206.424 168.058 210.108 171.739 211.575L194.714 220.738C198.381 222.201 202.783 220.898 204.547 217.83L210.813 206.935C217.296 208.455 223.999 209.48 230.845 210.027L231.924 222.071C232.227 225.451 235.745 227.974 239.779 227.705L264.954 226.023C268.971 225.754 271.981 222.804 271.679 219.433L270.603 207.425C277.226 206 283.61 204.126 289.68 201.798L297.717 211.69C299.977 214.471 304.491 215.177 307.798 213.267L328.445 201.345C331.741 199.443 332.588 195.65 330.338 192.873L322.279 182.921C327.052 178.978 331.409 174.695 335.289 170.117L348.171 175.353C351.756 176.81 356.057 175.537 357.779 172.511L368.531 153.61C370.248 150.591 368.743 146.959 365.168 145.496L352.259 140.215C354.017 134.885 355.214 129.374 355.848 123.737L370.209 122.881C374.16 122.645 377.119 119.745 376.82 116.402L374.947 95.4991C374.647 92.1568 371.201 89.6303 367.249 89.8558ZM236.736 52.2957C277.313 50.1131 312.493 75.8409 315.532 109.749C318.57 143.656 288.344 173.203 247.799 175.757C207.009 178.326 171.27 152.631 168.198 118.351C165.126 84.0709 195.912 54.4915 236.736 52.2957Z" fill="#BFC8D6"/>
<path d="M550.74 401.66C570.769 413.369 572.254 433.316 570.658 447.893C568.593 448.822 567.685 449.803 565.854 451.127C549.324 463.082 539.264 465.199 520.775 474.803C516.795 476.871 502.934 479.93 497.176 480.872L486.408 482.484C486.408 482.484 444.556 450.956 462.99 428.931C481.424 406.907 446.16 372.693 430.117 352.618C420.265 340.29 420.423 331.98 417.662 326.958C388.432 273.799 360.371 266.915 363.405 244.684C366.755 220.143 401.911 221.508 407.221 194.975C413.217 165.013 372.414 143.155 385.57 115.875C387.826 111.198 390.293 106.445 395.953 101.707C409.922 90.0131 428.614 92.0441 433.092 75.0805C442.093 40.983 476.151 15.0646 515.582 28.5381C554.498 41.8359 557.321 101.445 511.995 170.485C486.371 222.695 491.894 232.468 510.774 253.857C523.998 268.838 571.573 302.039 554.485 331.316C537.397 360.594 527.844 388.275 550.74 401.66Z" fill="url(#paint0_linear_12048_7592)"/>
<g opacity="0.3">
<mask id="mask0_12048_7592" style="mask-type:luminance" maskUnits="userSpaceOnUse" x="383" y="24" width="189" height="460">
<path d="M567.021 466.373L488.881 483.208C488.881 483.208 444.557 450.956 462.991 428.931C481.425 406.907 446.162 372.693 430.119 352.618C386.589 298.149 469.407 268.089 420.709 194.282C407.757 174.652 374.604 140.96 385.572 115.876C398.067 87.2974 427.335 96.8964 433.094 75.0804C442.095 40.9831 476.153 15.0645 515.583 28.5382C554.499 41.836 557.322 101.445 511.997 170.484C486.372 222.695 491.896 232.468 510.776 253.857C524 268.838 571.574 302.039 554.486 331.317C537.398 360.594 527.846 388.274 550.742 401.66C585.581 422.027 567.021 466.373 567.021 466.373Z" fill="white"/>
</mask>
<g mask="url(#mask0_12048_7592)">
<path d="M531.171 470.964L529.68 471.451C526.431 464.502 523.265 457.458 520.269 450.516C498.088 399.108 482.84 347.697 474.949 297.708C468.264 255.35 466.755 213.419 470.463 173.08C473.446 140.639 479.804 109.046 489.361 79.1787C496.081 58.1828 504.299 38.2498 513.79 19.9343C515.443 16.7424 517.354 13.5436 519.203 10.4498C521.665 6.32823 524.212 2.06618 526.167 -2.21289L527.657 -1.82843C525.675 2.50951 523.111 6.80039 520.632 10.9499C518.793 14.0281 516.891 17.211 515.254 20.3705C505.794 38.6286 497.599 58.5019 490.9 79.4386C481.366 109.232 475.023 140.749 472.047 173.116C468.346 213.372 469.853 255.219 476.525 297.495C484.402 347.4 499.626 398.729 521.773 450.057C524.765 456.991 527.927 464.025 531.171 470.964Z" fill="#FCFDFE"/>
<path d="M470.075 222.246L468.488 222.348C466.053 168.284 391.348 99.5681 390.594 98.8808L391.81 98.0254C392.569 98.7165 467.62 167.749 470.075 222.246Z" fill="#FCFDFE"/>
<path d="M493.596 372.412L492.027 372.66C484.955 336.266 543.034 279.965 543.621 279.4L544.827 280.18C544.243 280.741 486.634 336.587 493.596 372.412Z" fill="#FCFDFE"/>
<path d="M499.87 392.705L498.367 393.168C488.501 370.624 459.656 344.621 417.145 319.949C415.008 318.709 415.008 318.709 414.906 318.487L416.403 318.01L415.654 318.248L416.246 317.81C416.375 317.906 417.182 318.374 418.118 318.917C460.871 343.729 489.904 369.934 499.87 392.705Z" fill="#FCFDFE"/>
<path d="M525.473 458.209L523.886 458.316C522.553 431.728 560.009 404.373 560.387 404.1L561.425 405.018C561.052 405.287 524.171 432.23 525.473 458.209Z" fill="#FCFDFE"/>
<path d="M529.092 471.999C511.72 456.146 487.829 443.952 456.055 434.72L456.658 433.53C488.676 442.833 512.768 455.137 530.309 471.145L529.092 471.999Z" fill="#FCFDFE"/>
<path d="M485.625 97.0897L484.037 97.1209C484.795 66.9267 476.792 35.3804 474.163 25.0142C473.526 22.5049 473.306 21.6208 473.297 21.3L474.884 21.2158C474.895 21.4605 475.259 22.895 475.72 24.7113C478.359 35.1108 486.386 66.7574 485.625 97.0897Z" fill="#FCFDFE"/>
<path d="M475.266 146.365L473.758 146.023C484.917 118.755 548.607 91.1944 551.313 90.0342L552.016 91.141C551.36 91.4228 486.217 119.607 475.266 146.365Z" fill="#FCFDFE"/>
</g>
</g>
<path d="M565.799 473.41C561.42 474.45 560.348 512.015 536.657 493.085C530.738 488.355 517.276 469.487 486.017 479.576C479.95 481.535 473.881 483.493 467.814 485.451C456.998 475.919 448.889 465.237 464.856 454.394C489.653 437.554 469.822 397.731 454.809 386.5C436.228 372.6 393.815 339.497 431.66 312.99C463.166 290.923 488.893 281.737 472.191 243.716C455.488 205.696 468.948 173.44 512.4 160.528C558.127 146.939 570.194 86.7426 614.845 89.477C692.646 94.2431 677.465 196.61 612.452 247.928C547.44 299.246 603.266 305.559 621.096 335.186C622.567 338.016 624.59 342.499 625.792 348.174C633.189 383.115 596.61 402.673 581.513 438.847C560.923 488.181 573.178 471.657 565.799 473.41Z" fill="url(#paint1_linear_12048_7592)"/>
<g opacity="0.3">
<mask id="mask1_12048_7592" style="mask-type:luminance" maskUnits="userSpaceOnUse" x="416" y="89" width="252" height="405">
<path d="M573.059 459.115L475.734 493.178C464.509 484.198 447.021 466.506 464.856 454.394C489.653 437.554 469.821 397.73 454.809 386.5C436.228 372.6 393.815 339.497 431.66 312.99C463.166 290.922 488.893 281.737 472.19 243.716C455.488 205.695 468.948 173.44 512.4 160.528C558.126 146.939 570.194 86.7421 614.845 89.477C692.646 94.2427 677.464 196.609 612.452 247.928C547.44 299.246 603.265 305.559 621.095 335.186C645.437 375.634 570.383 391.956 560.216 414.897C552.245 432.882 564.087 449.536 573.059 459.115Z" fill="white"/>
</mask>
<g mask="url(#mask1_12048_7592)">
<path d="M521.059 462.97L518.825 463.371C487.602 332.557 535.782 188.189 644.564 86.6064L646.265 87.7799C537.942 188.935 489.965 332.7 521.059 462.97Z" fill="#FCFDFE"/>
<path d="M511.66 390.284L509.554 391.03C484.853 342.903 413.817 323.726 413.102 323.538L413.867 321.793C414.592 321.983 486.568 341.398 511.66 390.284Z" fill="#FCFDFE"/>
<path d="M516.136 438.76L513.875 438.62C520.953 385.368 629.255 339.832 630.348 339.379L631.339 341.004C630.257 341.453 523.079 386.52 516.136 438.76Z" fill="#FCFDFE"/>
<path d="M532.923 259.556L530.648 259.574C531.783 217.208 474.609 172.881 474.031 172.439L475.624 171.091C476.209 171.539 534.078 216.407 532.923 259.556Z" fill="#FCFDFE"/>
<path d="M571.07 179.258L569.234 178.222C604.606 138.404 684.297 125.26 685.099 125.133L685.475 126.931C684.683 127.056 605.89 140.06 571.07 179.258Z" fill="#FCFDFE"/>
</g>
</g>
<path d="M473.504 106.861C472.518 94.5058 461.665 84.4696 447.579 84.0552L446.981 84.0365L32.6589 71.8445L31.9173 71.8225C14.7158 71.3163 0.545014 82.258 0.104429 96.3895C0.0968906 96.6136 0 96.838 0 97.0626V117.015V411.228C0 425.683 14.3511 436.954 31.8252 436.281L446.806 420.296C461.588 419.727 473.436 408.477 473.436 395.291V126.9V108.699C473.435 108.079 473.555 107.47 473.504 106.861Z" fill="url(#paint2_linear_12048_7592)"/>
<path d="M483.649 108.949V394.988C483.649 408.149 471.901 419.354 457.178 419.921L43.8151 435.834C26.4178 436.504 12.0703 425.265 12.0703 410.841V97.359C12.0703 97.1349 12.2041 96.9122 12.2113 96.6885C12.6502 82.5885 26.7621 71.6721 43.8874 72.1759L457.223 84.3376C471.256 84.7505 482.618 94.7818 483.657 107.114C483.708 107.722 483.649 108.33 483.649 108.949Z" fill="url(#paint3_linear_12048_7592)"/>
<path d="M483.649 108.948V126.74L12.0703 116.857V97.3585C12.0703 97.1344 12.2041 96.9117 12.2113 96.688C12.6731 82.5885 27.5145 71.6936 44.6348 72.1975L457.86 84.3558C471.889 84.7687 482.674 94.7828 483.657 107.113C483.707 107.722 483.649 108.33 483.649 108.948Z" fill="url(#paint4_linear_12048_7592)"/>
<path d="M453.014 109.403C453.014 113.187 449.92 116.176 445.684 116.078L156.223 109.437C151.469 109.328 147.602 105.983 147.602 101.965V93.8468C147.602 89.8287 151.638 86.676 156.392 86.8056L445.604 94.6979C449.839 94.8133 453.014 97.9743 453.014 101.758V109.403Z" fill="white"/>
<path d="M69.365 95.7068C69.365 100.189 64.9882 103.719 59.5794 103.591C54.1595 103.463 49.7578 99.7123 49.7578 95.2138C49.7578 90.7153 54.1595 87.186 59.5794 87.3305C64.9884 87.4744 69.365 91.2246 69.365 95.7068Z" fill="white"/>
<path d="M95.1595 96.3553C95.1595 100.816 90.8251 104.329 85.4686 104.202C80.1011 104.076 75.7422 100.344 75.7422 95.867C75.7422 91.3906 80.1011 87.8776 85.4686 88.0208C90.8251 88.1636 95.1595 91.8951 95.1595 96.3553Z" fill="white"/>
<path d="M120.707 96.9975C120.707 101.436 116.414 104.933 111.109 104.808C105.794 104.682 101.477 100.969 101.477 96.5139C101.477 92.059 105.794 88.5625 111.109 88.7044C116.414 88.8458 120.707 92.5586 120.707 96.9975Z" fill="white"/>
<path d="M247.857 233.841L51.9844 233.996V152.319L247.857 155.161V233.841Z" fill="white"/>
<path d="M451.156 169.592L267.352 167.351V155.423L451.156 158.09V169.592Z" fill="white"/>
<path d="M451.156 190.952L267.352 189.502V177.574L451.156 179.45V190.952Z" fill="white"/>
<path d="M451.156 212.312L267.352 211.654V200.578L451.156 201.632V212.312Z" fill="white"/>
<path d="M451.156 233.672L267.352 233.806V221.878L451.156 222.171V233.672Z" fill="white"/>
<path d="M451.153 262.425L55.6953 265.022V252.602L451.153 250.924V262.425Z" fill="white"/>
<path d="M451.153 283.786L55.6953 288.088V275.668L451.153 272.284V283.786Z" fill="white"/>
<path d="M451.153 305.145L55.6953 311.153V298.733L451.153 293.644V305.145Z" fill="white"/>
<path d="M451.153 326.505L55.6953 334.219V321.799L451.153 315.004V326.505Z" fill="white"/>
<path d="M451.153 361.009L55.6953 371.479V359.059L451.153 349.508V361.009Z" fill="white"/>
<path d="M451.153 382.37L55.6953 394.545V382.125L451.153 370.868V382.37Z" fill="white"/>
<path opacity="0.4" d="M483.649 381.573V394.988C483.649 408.149 471.901 419.354 457.178 419.921L43.8151 435.834C26.4178 436.504 12.0703 425.265 12.0703 410.841V97.359C12.0703 97.1349 12.2041 96.9122 12.2113 96.6885C12.6502 82.5885 26.7621 71.6721 43.8874 72.1759L72.8613 73.0281C74.2593 78.1964 76.233 83.9366 78.972 89.9268C81.0964 94.5693 83.6942 99.3543 86.8595 104.148C90.1834 109.18 94.1359 114.218 98.8349 119.075C112.205 132.911 131.563 145.301 159.512 152.306C162.137 152.961 164.753 153.64 167.352 154.331C196.815 162.185 224.629 172.409 248.173 187.026C254.722 191.089 260.945 195.496 266.782 200.287C271.291 203.99 275.572 207.921 279.593 212.099C282.68 215.299 285.62 218.655 288.4 222.16C291.36 225.909 294.147 229.836 296.735 233.954C300.208 239.473 303.33 245.344 306.057 251.586C307.714 255.359 309.227 259.264 310.585 263.316C311.678 266.545 312.67 269.862 313.56 273.278C314.558 277.061 315.427 280.968 316.175 284.992C316.815 288.418 317.36 291.932 317.804 295.534C318.289 299.335 318.659 303.242 318.915 307.25C319.136 310.502 319.278 313.819 319.345 317.214C319.426 321.03 319.406 324.942 319.291 328.944C319.251 330.493 319.197 332.06 319.123 333.639C318.787 341.013 319.372 347.41 320.771 352.953C321.873 357.341 323.486 361.185 325.56 364.552C327.908 368.378 330.837 371.586 334.276 374.261C341.769 380.096 351.54 383.403 362.947 385.079C397.167 390.11 445.589 380.565 483.649 381.573Z" fill="white"/>
<path d="M570.909 298.722V571.666C570.909 579.529 566.912 586.838 560.318 591.501C556.199 594.418 551.528 596.376 546.1 596.783L344.415 611.914C328.587 613.101 315.625 602.833 315.625 589.178V297.104C315.625 296.892 315.626 296.486 315.633 296.275C316.033 282.918 328.902 272.157 344.482 272.355L546.109 274.918C559.557 275.088 570.176 284.816 571.17 296.754C571.218 297.344 570.909 298.122 570.909 298.722Z" fill="url(#paint5_linear_12048_7592)"/>
<path d="M570.909 298.722V312.432L315.625 311.775V297.104C315.625 296.892 315.626 296.486 315.633 296.275C316.054 282.918 329.587 272.166 345.162 272.364L546.719 274.926C560.163 275.096 570.23 284.816 571.17 296.754C571.218 297.344 570.909 298.122 570.909 298.722Z" fill="url(#paint6_linear_12048_7592)"/>
<path d="M558.838 295.45C558.838 299.109 555.627 302.057 551.596 302.036L420.839 301.343C416.505 301.32 413.094 298.219 413.094 294.415V292.507C413.094 288.702 416.527 285.648 420.861 285.689L551.639 286.924C555.669 286.962 558.838 289.957 558.838 293.616L558.838 295.45Z" fill="url(#paint7_linear_12048_7592)"/>
<path d="M349.14 293.262C349.14 297.514 345.132 300.939 340.177 300.913C335.209 300.887 331.172 297.402 331.172 293.131C331.172 288.859 335.209 285.434 340.177 285.48C345.132 285.526 349.14 289.01 349.14 293.262Z" fill="url(#paint8_linear_12048_7592)"/>
<path d="M372.726 293.434C372.726 297.659 368.767 301.064 363.871 301.038C358.964 301.012 354.977 297.55 354.977 293.304C354.977 289.059 358.964 285.654 363.871 285.7C368.767 285.745 372.726 289.207 372.726 293.434Z" fill="url(#paint9_linear_12048_7592)"/>
<path d="M396.026 293.604C396.026 297.805 392.115 301.189 387.279 301.163C382.431 301.137 378.492 297.696 378.492 293.476C378.492 289.256 382.431 285.873 387.279 285.917C392.115 285.963 396.026 289.404 396.026 293.604Z" fill="url(#paint10_linear_12048_7592)"/>
<path opacity="0.3" d="M554.199 574.68L336.047 589.775V329.516L554.199 329.071V574.68Z" fill="url(#paint11_linear_12048_7592)"/>
<path d="M443.73 421.856L351.828 424.302V347.108L443.73 346.506V421.856Z" fill="url(#paint12_linear_12048_7592)"/>
<path d="M540.272 357.036L450.227 357.9V346.457L540.272 345.864V357.036Z" fill="url(#paint13_linear_12048_7592)"/>
<path d="M540.272 377.783L450.227 379.153V367.709L540.272 366.611V377.783Z" fill="url(#paint14_linear_12048_7592)"/>
<path d="M540.272 399.328L450.227 401.222V389.778L540.272 388.156V399.328Z" fill="url(#paint15_linear_12048_7592)"/>
<path d="M540.272 419.277L450.227 421.656V410.213L540.272 408.105V419.277Z" fill="url(#paint16_linear_12048_7592)"/>
<path d="M540.275 447.206L352.758 453.635V441.891L540.275 436.034V447.206Z" fill="url(#paint17_linear_12048_7592)"/>
<path d="M540.275 467.953L352.758 475.445V463.701L540.275 456.781V467.953Z" fill="url(#paint18_linear_12048_7592)"/>
<path d="M540.275 488.7L352.758 497.255V485.511L540.275 477.528V488.7Z" fill="url(#paint19_linear_12048_7592)"/>
<path d="M540.275 509.447L352.758 519.065V507.321L540.275 498.275V509.447Z" fill="url(#paint20_linear_12048_7592)"/>
<path d="M540.275 542.962L352.758 554.297V542.553L540.275 531.79V542.962Z" fill="url(#paint21_linear_12048_7592)"/>
<path d="M540.275 563.71L352.758 576.107V564.364L540.275 552.538V563.71Z" fill="url(#paint22_linear_12048_7592)"/>
<path d="M582.043 298.787V570.87C582.043 578.709 577.908 586.022 571.354 590.669C567.26 593.576 562.339 595.556 556.944 595.961L356.15 610.999C340.423 612.179 327.688 601.905 327.688 588.295V297.186C327.688 296.974 327.843 296.568 327.85 296.357C328.248 283.043 340.994 272.314 356.475 272.51L556.965 275.057C570.333 275.227 581.102 284.924 582.09 296.827C582.138 297.414 582.043 298.189 582.043 298.787Z" fill="url(#paint23_linear_12048_7592)"/>
<path d="M582.043 298.786V312.453L327.688 311.808V297.185C327.688 296.974 327.843 296.567 327.85 296.356C328.268 283.043 341.675 272.322 357.151 272.518L557.572 275.064C570.936 275.234 581.156 284.924 582.09 296.826C582.138 297.414 582.043 298.188 582.043 298.786Z" fill="url(#paint24_linear_12048_7592)"/>
<path d="M569.05 295.527C569.05 299.176 565.969 302.115 561.961 302.094L431.94 301.397C427.632 301.374 424.234 298.275 424.234 294.482V292.579C424.234 288.786 427.719 285.748 432.027 285.788L561.968 287.02C565.976 287.058 569.05 290.049 569.05 293.698V295.527Z" fill="white"/>
<path d="M361.3 293.351C361.3 297.589 357.318 301.004 352.394 300.978C347.457 300.952 343.445 297.478 343.445 293.22C343.445 288.962 347.457 285.547 352.394 285.593C357.318 285.639 361.3 289.112 361.3 293.351Z" fill="white"/>
<path d="M384.74 293.522C384.74 297.734 380.806 301.128 375.941 301.103C371.064 301.077 367.102 297.625 367.102 293.393C367.102 289.16 371.064 285.767 375.941 285.812C380.806 285.857 384.74 289.309 384.74 293.522Z" fill="white"/>
<path d="M407.894 293.691C407.894 297.878 404.007 301.252 399.201 301.226C394.384 301.2 390.469 297.77 390.469 293.563C390.469 289.357 394.383 285.983 399.201 286.028C404.007 286.072 407.894 289.503 407.894 293.691Z" fill="white"/>
<path opacity="0.3" d="M565.339 573.872L347.188 588.96V329.494L565.339 329.04V573.872Z" fill="url(#paint25_linear_12048_7592)"/>
<path d="M453.013 421.582L362.039 424.028V347.053L453.013 346.439V421.582Z" fill="white"/>
<path d="M551.408 356.915L463.219 357.788V346.382L551.408 345.779V356.915Z" fill="white"/>
<path d="M551.408 377.597L463.219 378.971V367.565L551.408 366.461V377.597Z" fill="white"/>
<path d="M551.408 399.074L463.219 400.969V389.563L551.408 387.938V399.074Z" fill="white"/>
<path d="M551.408 418.96L463.219 421.336V409.93L551.408 407.823V418.96Z" fill="white"/>
<path d="M551.408 446.8L363.891 453.245V441.538L551.408 435.664V446.8Z" fill="white"/>
<path d="M551.408 467.482L363.891 474.988V463.28L551.408 456.346V467.482Z" fill="white"/>
<path d="M551.408 488.164L363.891 496.73V485.023L551.408 477.027V488.164Z" fill="white"/>
<path d="M551.408 508.845L363.891 518.473V506.766L551.408 497.709V508.845Z" fill="white"/>
<path d="M551.408 542.253L363.891 553.595V541.888L551.408 531.117V542.253Z" fill="white"/>
<path d="M551.408 562.935L363.891 575.338V563.631L551.408 551.799V562.935Z" fill="white"/>
<path opacity="0.4" d="M571.506 590.668C567.411 593.576 562.419 595.556 557.023 595.961L356.194 610.999C340.466 612.179 327.695 601.905 327.695 588.295V297.186C327.695 296.974 327.851 296.568 327.858 296.357C328.255 283.043 341.001 272.314 356.483 272.51L386.908 272.897C385.697 277.871 384.377 282.901 383.218 289.04C382.619 292.23 382.084 295.71 381.624 299.226C381.091 303.299 380.697 307.602 380.483 311.956C380.216 317.647 380.279 323.526 380.833 329.35C381.407 335.432 382.515 341.488 384.326 347.287C389.246 363.042 399.347 376.916 418.016 384.551C431.157 389.927 443.246 394.837 454.027 400.102C460.408 403.218 466.34 406.464 471.758 410.015C476.85 413.338 481.491 416.939 485.648 420.95C490.639 425.765 494.932 431.179 498.451 437.445C500.368 440.863 502.057 444.531 503.496 448.496C504.582 451.468 505.526 454.6 506.324 457.92C507.173 461.411 507.865 465.113 508.389 469.038C508.825 472.227 509.143 475.572 509.355 479.072C509.566 482.627 509.666 486.349 509.641 490.25C509.629 493.311 509.541 496.487 509.38 499.774C509.199 503.375 508.924 507.116 508.57 511.006C508.345 513.391 508.089 515.834 507.796 518.334C507.117 524.126 506.786 529.352 506.767 534.056C506.742 538.156 506.955 541.862 507.373 545.218C507.809 548.713 508.47 551.829 509.33 554.613C510.669 558.981 512.498 562.531 514.693 565.45C518.665 570.731 523.845 573.978 529.573 576.196C543.453 581.579 560.517 581.211 571.506 590.668Z" fill="white"/>
<path d="M223.376 537.034C223.376 579.661 184.015 613.193 133.708 611.886C81.3526 610.524 37.3203 572.233 37.3203 526.412C37.3203 480.591 81.3526 447.328 133.708 451.944C184.015 456.38 223.376 494.407 223.376 537.034Z" fill="url(#paint26_linear_12048_7592)"/>
<path d="M236.969 533.358C236.969 575.985 197.609 609.518 147.301 608.21C94.9463 606.848 50.9141 568.558 50.9141 522.736C50.9141 476.915 94.9463 443.652 147.301 448.269C197.609 452.705 236.969 490.731 236.969 533.358Z" fill="url(#paint27_linear_12048_7592)"/>
<path d="M233.02 533.133C233.02 573.883 195.359 605.885 147.301 604.567C97.3771 603.198 55.4609 566.656 55.4609 522.996C55.4609 479.337 97.3771 447.581 147.301 451.912C195.359 456.082 233.02 492.384 233.02 533.133Z" fill="url(#paint28_linear_12048_7592)"/>
<path opacity="0.53" d="M228.861 532.896C228.861 568.68 198.329 597.345 157.713 600.557C154.301 600.829 150.805 600.919 147.262 600.819C99.8218 599.469 60.0391 564.723 60.0391 523.26C60.0391 487.205 90.1198 459.667 129.165 455.771C135.016 455.187 141.079 455.126 147.262 455.66C192.978 459.577 228.861 494.102 228.861 532.896Z" fill="white"/>
<path d="M157.713 600.557C154.301 600.828 150.805 600.919 147.262 600.818C99.8218 599.469 60.0391 564.722 60.0391 523.26C60.0391 487.205 90.1198 459.667 129.165 455.771C142.351 464.49 154.158 475.646 156.191 488.866C159.508 510.412 134.088 520.33 131.282 543.75C128.976 563.071 139.902 584.598 157.713 600.557Z" fill="url(#paint29_linear_12048_7592)"/>
<path d="M136.616 574.248C132.794 574.248 129.239 572.531 127.262 569.708L94.0917 522.354C90.9869 517.922 92.6596 512.172 97.8272 509.509C102.992 506.847 109.698 508.28 112.803 512.713L135.829 545.585L166.268 494.307C169.003 489.7 175.576 487.867 180.946 490.212C186.318 492.558 188.456 498.194 185.721 502.801L146.344 569.134C144.544 572.167 140.965 574.123 137 574.242C136.872 574.246 136.744 574.248 136.616 574.248Z" fill="white"/>
<path d="M138.315 441.304C136.153 441.304 134.602 439.821 134.602 437.99V433.019C134.602 431.189 136.154 429.705 138.315 429.705C140.476 429.705 142.028 431.189 142.028 433.019V437.99C142.028 439.821 140.476 441.304 138.315 441.304Z" fill="url(#paint30_linear_12048_7592)"/>
<path d="M138.315 424.734C136.153 424.734 134.602 423.25 134.602 421.42V412.306C134.602 410.476 136.154 408.992 138.315 408.992C140.476 408.992 142.028 410.476 142.028 412.306V421.42C142.028 423.25 140.476 424.734 138.315 424.734ZM138.315 404.021C136.153 404.021 134.602 402.537 134.602 400.707V391.593C134.602 389.763 136.154 388.279 138.315 388.279C140.476 388.279 142.028 389.763 142.028 391.593V400.707C142.028 402.537 140.476 404.021 138.315 404.021ZM138.315 383.308C136.153 383.308 134.602 381.824 134.602 379.994V370.88C134.602 369.05 136.154 367.566 138.315 367.566C140.476 367.566 142.028 369.05 142.028 370.88V379.994C142.028 381.824 140.476 383.308 138.315 383.308ZM138.315 362.596C136.153 362.596 134.602 361.112 134.602 359.281V350.168C134.602 348.337 136.154 346.854 138.315 346.854C140.476 346.854 142.028 348.337 142.028 350.168V359.281C142.028 361.112 140.476 362.596 138.315 362.596Z" fill="url(#paint31_linear_12048_7592)"/>
<path d="M138.315 339.397C136.153 339.397 134.602 337.913 134.602 336.083V331.112C134.602 329.282 136.154 327.798 138.315 327.798C140.476 327.798 142.028 329.282 142.028 331.112V336.083C142.028 337.913 140.476 339.397 138.315 339.397Z" fill="url(#paint32_linear_12048_7592)"/>
<path d="M244.792 531.359C242.793 531.359 241.088 530.069 240.9 528.35C240.701 526.528 242.284 524.913 244.437 524.744L256.128 523.828C258.267 523.676 260.185 524.999 260.385 526.823C260.584 528.645 259.001 530.26 256.848 530.429L245.157 531.345C245.035 531.354 244.914 531.359 244.792 531.359ZM271.096 529.299C269.098 529.299 267.392 528.008 267.204 526.29C267.005 524.467 268.589 522.854 270.741 522.684L282.431 521.769C284.59 521.609 286.488 522.942 286.688 524.764C286.887 526.587 285.304 528.201 283.151 528.37L271.462 529.285C271.339 529.294 271.217 529.299 271.096 529.299ZM297.4 527.239C295.401 527.239 293.696 525.948 293.507 524.23C293.309 522.407 294.892 520.793 297.044 520.624L308.735 519.709C310.895 519.558 312.793 520.882 312.993 522.704C313.192 524.527 311.609 526.141 309.456 526.31L297.765 527.225C297.642 527.234 297.52 527.239 297.4 527.239ZM323.704 525.179C321.705 525.179 320 523.888 319.812 522.17C319.613 520.347 321.196 518.734 323.349 518.565L335.038 517.65C337.199 517.493 339.096 518.823 339.296 520.645C339.494 522.468 337.911 524.081 335.759 524.25L324.069 525.165C323.947 525.174 323.824 525.179 323.704 525.179ZM350.007 523.119C348.009 523.119 346.303 521.828 346.115 520.11C345.916 518.287 347.499 516.673 349.652 516.504L361.343 515.589C363.504 515.428 365.4 516.763 365.6 518.585C365.799 520.408 364.216 522.021 362.063 522.19L350.372 523.105C350.25 523.114 350.128 523.119 350.007 523.119Z" fill="url(#paint33_linear_12048_7592)"/>
<path d="M558.837 254.06C556.676 254.06 555.124 252.576 555.124 250.746V249.089C555.124 247.259 556.676 245.775 558.837 245.775C560.998 245.775 562.55 247.259 562.55 249.089V250.746C562.55 252.576 560.998 254.06 558.837 254.06ZM558.837 239.976C556.676 239.976 555.124 238.492 555.124 236.662V226.719C555.124 224.889 556.676 223.405 558.837 223.405C560.998 223.405 562.55 224.889 562.55 226.719V236.662C562.55 238.492 560.998 239.976 558.837 239.976ZM558.837 217.606C556.676 217.606 555.124 216.122 555.124 214.292V204.35C555.124 202.519 556.676 201.035 558.837 201.035C560.998 201.035 562.55 202.519 562.55 204.35V214.292C562.55 216.122 560.998 217.606 558.837 217.606ZM558.837 195.236C556.676 195.236 555.124 193.752 555.124 191.922V181.98C555.124 180.149 556.676 178.665 558.837 178.665C560.998 178.665 562.55 180.149 562.55 181.98V191.922C562.55 193.752 560.998 195.236 558.837 195.236ZM558.744 172.788C557.751 172.788 556.953 172.667 556.263 171.881H548.09C545.929 171.881 544.176 170.566 544.176 168.736C544.176 166.906 545.928 165.592 548.09 165.592H558.852C561.013 165.592 562.55 166.893 562.55 168.723V169.552C562.55 171.382 560.905 172.788 558.744 172.788ZM533.414 171.881H521.673C519.512 171.881 517.76 170.566 517.76 168.736C517.76 166.906 519.512 165.592 521.673 165.592H533.414C535.575 165.592 537.328 166.906 537.328 168.736C537.328 170.566 535.575 171.881 533.414 171.881ZM506.998 171.881H495.257C493.096 171.881 491.344 170.566 491.344 168.736C491.344 166.906 493.096 165.592 495.257 165.592H506.998C509.159 165.592 510.912 166.906 510.912 168.736C510.912 170.566 509.159 171.881 506.998 171.881Z" fill="url(#paint34_linear_12048_7592)"/>
<path d="M140.35 342.868C148.858 342.868 155.755 337.027 155.755 329.823C155.755 322.618 148.858 316.777 140.35 316.777C131.842 316.777 124.945 322.618 124.945 329.823C124.945 337.027 131.842 342.868 140.35 342.868Z" fill="url(#paint35_linear_12048_7592)"/>
<path d="M361.467 531.769C369.975 531.769 376.872 525.929 376.872 518.724C376.872 511.519 369.975 505.679 361.467 505.679C352.96 505.679 346.062 511.519 346.062 518.724C346.062 525.929 352.96 531.769 361.467 531.769Z" fill="url(#paint36_linear_12048_7592)"/>
<path d="M470.061 182.965C478.569 182.965 485.466 177.124 485.466 169.919C485.466 162.715 478.569 156.874 470.061 156.874C461.553 156.874 454.656 162.715 454.656 169.919C454.656 177.124 461.553 182.965 470.061 182.965Z" fill="url(#paint37_linear_12048_7592)"/>
<path d="M559.092 269.958C567.6 269.958 574.497 264.117 574.497 256.912C574.497 249.708 567.6 243.867 559.092 243.867C550.585 243.867 543.688 249.708 543.688 256.912C543.688 264.117 550.585 269.958 559.092 269.958Z" fill="url(#paint38_linear_12048_7592)"/>
<defs>
<linearGradient id="paint0_linear_12048_7592" x1="443.334" y1="24.2035" x2="473.938" y2="560.744" gradientUnits="userSpaceOnUse">
<stop offset="0.0036" stop-color="#E38DDD"/>
<stop offset="1" stop-color="#9571F6"/>
</linearGradient>
<linearGradient id="paint1_linear_12048_7592" x1="562.802" y1="125.134" x2="515.901" y2="498.086" gradientUnits="userSpaceOnUse">
<stop stop-color="#FF9085"/>
<stop offset="1" stop-color="#FB6FBB"/>
</linearGradient>
<linearGradient id="paint2_linear_12048_7592" x1="-0.000251284" y1="254.057" x2="473.517" y2="254.057" gradientUnits="userSpaceOnUse">
<stop stop-color="#AB316D"/>
<stop offset="1" stop-color="#792D3D"/>
</linearGradient>
<linearGradient id="paint3_linear_12048_7592" x1="443.196" y1="-94.4636" x2="75.0217" y2="801.424" gradientUnits="userSpaceOnUse">
<stop stop-color="#FFC444"/>
<stop offset="0.9964" stop-color="#F36F56"/>
</linearGradient>
<linearGradient id="paint4_linear_12048_7592" x1="12.0702" y1="99.4602" x2="483.677" y2="99.4602" gradientUnits="userSpaceOnUse">
<stop stop-color="#AB316D"/>
<stop offset="1" stop-color="#792D3D"/>
</linearGradient>
<linearGradient id="paint5_linear_12048_7592" x1="576.632" y1="213.831" x2="305.599" y2="839.313" gradientUnits="userSpaceOnUse">
<stop stop-color="#40447E"/>
<stop offset="0.9964" stop-color="#3C3B6B"/>
</linearGradient>
<linearGradient id="paint6_linear_12048_7592" x1="315.625" y1="292.397" x2="571.175" y2="292.397" gradientUnits="userSpaceOnUse">
<stop stop-color="#40447E"/>
<stop offset="0.9964" stop-color="#3C3B6B"/>
</linearGradient>
<linearGradient id="paint7_linear_12048_7592" x1="413.094" y1="293.862" x2="558.838" y2="293.862" gradientUnits="userSpaceOnUse">
<stop stop-color="#40447E"/>
<stop offset="0.9964" stop-color="#3C3B6B"/>
</linearGradient>
<linearGradient id="paint8_linear_12048_7592" x1="331.172" y1="293.196" x2="349.14" y2="293.196" gradientUnits="userSpaceOnUse">
<stop stop-color="#40447E"/>
<stop offset="0.9964" stop-color="#3C3B6B"/>
</linearGradient>
<linearGradient id="paint9_linear_12048_7592" x1="354.976" y1="293.369" x2="372.726" y2="293.369" gradientUnits="userSpaceOnUse">
<stop stop-color="#40447E"/>
<stop offset="0.9964" stop-color="#3C3B6B"/>
</linearGradient>
<linearGradient id="paint10_linear_12048_7592" x1="378.492" y1="293.54" x2="396.026" y2="293.54" gradientUnits="userSpaceOnUse">
<stop stop-color="#40447E"/>
<stop offset="0.9964" stop-color="#3C3B6B"/>
</linearGradient>
<linearGradient id="paint11_linear_12048_7592" x1="336.047" y1="459.423" x2="554.199" y2="459.423" gradientUnits="userSpaceOnUse">
<stop stop-color="#40447E"/>
<stop offset="0.9964" stop-color="#3C3B6B"/>
</linearGradient>
<linearGradient id="paint12_linear_12048_7592" x1="351.828" y1="385.404" x2="443.73" y2="385.404" gradientUnits="userSpaceOnUse">
<stop stop-color="#40447E"/>
<stop offset="0.9964" stop-color="#3C3B6B"/>
</linearGradient>
<linearGradient id="paint13_linear_12048_7592" x1="450.227" y1="351.882" x2="540.272" y2="351.882" gradientUnits="userSpaceOnUse">
<stop stop-color="#40447E"/>
<stop offset="0.9964" stop-color="#3C3B6B"/>
</linearGradient>
<linearGradient id="paint14_linear_12048_7592" x1="450.227" y1="372.882" x2="540.272" y2="372.882" gradientUnits="userSpaceOnUse">
<stop stop-color="#40447E"/>
<stop offset="0.9964" stop-color="#3C3B6B"/>
</linearGradient>
<linearGradient id="paint15_linear_12048_7592" x1="450.227" y1="394.689" x2="540.272" y2="394.689" gradientUnits="userSpaceOnUse">
<stop stop-color="#40447E"/>
<stop offset="0.9964" stop-color="#3C3B6B"/>
</linearGradient>
<linearGradient id="paint16_linear_12048_7592" x1="450.227" y1="414.881" x2="540.272" y2="414.881" gradientUnits="userSpaceOnUse">
<stop stop-color="#40447E"/>
<stop offset="0.9964" stop-color="#3C3B6B"/>
</linearGradient>
<linearGradient id="paint17_linear_12048_7592" x1="352.758" y1="444.835" x2="540.275" y2="444.835" gradientUnits="userSpaceOnUse">
<stop stop-color="#40447E"/>
<stop offset="0.9964" stop-color="#3C3B6B"/>
</linearGradient>
<linearGradient id="paint18_linear_12048_7592" x1="352.758" y1="466.113" x2="540.275" y2="466.113" gradientUnits="userSpaceOnUse">
<stop stop-color="#40447E"/>
<stop offset="0.9964" stop-color="#3C3B6B"/>
</linearGradient>
<linearGradient id="paint19_linear_12048_7592" x1="352.758" y1="487.392" x2="540.275" y2="487.392" gradientUnits="userSpaceOnUse">
<stop stop-color="#40447E"/>
<stop offset="0.9964" stop-color="#3C3B6B"/>
</linearGradient>
<linearGradient id="paint20_linear_12048_7592" x1="352.758" y1="508.67" x2="540.275" y2="508.67" gradientUnits="userSpaceOnUse">
<stop stop-color="#40447E"/>
<stop offset="0.9964" stop-color="#3C3B6B"/>
</linearGradient>
<linearGradient id="paint21_linear_12048_7592" x1="352.758" y1="543.043" x2="540.275" y2="543.043" gradientUnits="userSpaceOnUse">
<stop stop-color="#40447E"/>
<stop offset="0.9964" stop-color="#3C3B6B"/>
</linearGradient>
<linearGradient id="paint22_linear_12048_7592" x1="352.758" y1="564.323" x2="540.275" y2="564.323" gradientUnits="userSpaceOnUse">
<stop stop-color="#40447E"/>
<stop offset="0.9964" stop-color="#3C3B6B"/>
</linearGradient>
<linearGradient id="paint23_linear_12048_7592" x1="587.741" y1="214.333" x2="317.652" y2="837.638" gradientUnits="userSpaceOnUse">
<stop offset="0.0036" stop-color="#E38DDD"/>
<stop offset="1" stop-color="#9571F6"/>
</linearGradient>
<linearGradient id="paint24_linear_12048_7592" x1="327.688" y1="292.485" x2="582.103" y2="292.485" gradientUnits="userSpaceOnUse">
<stop stop-color="#40447E"/>
<stop offset="0.9964" stop-color="#3C3B6B"/>
</linearGradient>
<linearGradient id="paint25_linear_12048_7592" x1="347.188" y1="459" x2="565.339" y2="459" gradientUnits="userSpaceOnUse">
<stop offset="0.0036" stop-color="#E38DDD"/>
<stop offset="1" stop-color="#9571F6"/>
</linearGradient>
<linearGradient id="paint26_linear_12048_7592" x1="37.3202" y1="531.719" x2="223.376" y2="531.719" gradientUnits="userSpaceOnUse">
<stop stop-color="#444B8C"/>
<stop offset="0.9964" stop-color="#26264F"/>
</linearGradient>
<linearGradient id="paint27_linear_12048_7592" x1="186.237" y1="448.905" x2="113.253" y2="639.046" gradientUnits="userSpaceOnUse">
<stop stop-color="#AA80F9"/>
<stop offset="0.9964" stop-color="#6165D7"/>
</linearGradient>
<linearGradient id="paint28_linear_12048_7592" x1="83.8613" y1="609.165" x2="123.214" y2="535.36" gradientUnits="userSpaceOnUse">
<stop stop-color="#AA80F9"/>
<stop offset="0.9964" stop-color="#6165D7"/>
</linearGradient>
<linearGradient id="paint29_linear_12048_7592" x1="106.163" y1="509.237" x2="163.052" y2="651.846" gradientUnits="userSpaceOnUse">
<stop stop-color="#AA80F9"/>
<stop offset="0.9964" stop-color="#6165D7"/>
</linearGradient>
<linearGradient id="paint30_linear_12048_7592" x1="134.601" y1="435.505" x2="142.028" y2="435.505" gradientUnits="userSpaceOnUse">
<stop stop-color="#444B8C"/>
<stop offset="0.9964" stop-color="#26264F"/>
</linearGradient>
<linearGradient id="paint31_linear_12048_7592" x1="134.601" y1="385.794" x2="142.028" y2="385.794" gradientUnits="userSpaceOnUse">
<stop stop-color="#444B8C"/>
<stop offset="0.9964" stop-color="#26264F"/>
</linearGradient>
<linearGradient id="paint32_linear_12048_7592" x1="134.601" y1="333.597" x2="142.028" y2="333.597" gradientUnits="userSpaceOnUse">
<stop stop-color="#444B8C"/>
<stop offset="0.9964" stop-color="#26264F"/>
</linearGradient>
<linearGradient id="paint33_linear_12048_7592" x1="240.883" y1="523.467" x2="365.617" y2="523.467" gradientUnits="userSpaceOnUse">
<stop stop-color="#444B8C"/>
<stop offset="0.9964" stop-color="#26264F"/>
</linearGradient>
<linearGradient id="paint34_linear_12048_7592" x1="491.344" y1="209.826" x2="562.55" y2="209.826" gradientUnits="userSpaceOnUse">
<stop stop-color="#444B8C"/>
<stop offset="0.9964" stop-color="#26264F"/>
</linearGradient>
<linearGradient id="paint35_linear_12048_7592" x1="124.945" y1="329.823" x2="155.755" y2="329.823" gradientUnits="userSpaceOnUse">
<stop stop-color="#444B8C"/>
<stop offset="0.9964" stop-color="#26264F"/>
</linearGradient>
<linearGradient id="paint36_linear_12048_7592" x1="346.062" y1="518.724" x2="376.872" y2="518.724" gradientUnits="userSpaceOnUse">
<stop stop-color="#444B8C"/>
<stop offset="0.9964" stop-color="#26264F"/>
</linearGradient>
<linearGradient id="paint37_linear_12048_7592" x1="454.656" y1="169.919" x2="485.466" y2="169.919" gradientUnits="userSpaceOnUse">
<stop stop-color="#444B8C"/>
<stop offset="0.9964" stop-color="#26264F"/>
</linearGradient>
<linearGradient id="paint38_linear_12048_7592" x1="543.687" y1="256.913" x2="574.497" y2="256.913" gradientUnits="userSpaceOnUse">
<stop stop-color="#444B8C"/>
<stop offset="0.9964" stop-color="#26264F"/>
</linearGradient>
</defs>
</svg>
