<svg width="761" height="638" viewBox="0 0 761 638" fill="none" xmlns="http://www.w3.org/2000/svg">
<path d="M681.938 400.128H410.154C409.276 400.128 408.565 399.415 408.565 398.539C408.565 397.663 409.276 396.95 410.154 396.95H681.938C696.179 396.95 707.765 385.364 707.765 371.125V29.007C707.765 14.766 696.179 3.17999 681.938 3.17999H315.834C301.593 3.17999 290.007 14.766 290.007 29.007V231.024C290.007 231.901 289.296 232.614 288.418 232.614C287.54 232.614 286.828 231.901 286.828 231.024V29.007C286.828 13.012 299.84 0 315.834 0H681.938C697.933 0 710.944 13.012 710.944 29.007V371.124C710.944 387.116 697.933 400.128 681.938 400.128Z" fill="#362D60"/>
<path d="M681.945 373.893H405.818C404.94 373.893 404.227 373.18 404.227 372.303C404.227 371.426 404.94 370.713 405.818 370.713H681.526V58.0208H316.242V282.202C316.242 283.079 315.531 283.792 314.652 283.792C313.774 283.792 313.062 283.079 313.062 282.202V56.4308C313.062 55.5538 313.774 54.8418 314.652 54.8418H683.115C683.993 54.8418 684.705 55.5548 684.705 56.4308V371.131C684.705 372.654 683.467 373.893 681.945 373.893Z" fill="#50C7EB"/>
<path d="M673.475 37.298C673.068 37.298 672.662 37.144 672.351 36.833L659.349 23.834C658.728 23.213 658.728 22.205 659.349 21.584C659.97 20.968 660.976 20.963 661.597 21.584L674.599 34.583C675.22 35.204 675.22 36.212 674.599 36.833C674.288 37.141 673.882 37.298 673.475 37.298Z" fill="#362D60"/>
<path d="M660.473 37.2979C660.066 37.2979 659.66 37.1439 659.349 36.8329C658.728 36.2119 658.728 35.2039 659.349 34.5829L672.351 21.5839C672.972 20.9629 673.978 20.9629 674.599 21.5839C675.22 22.2049 675.22 23.2129 674.599 23.8339L661.597 36.8329C661.286 37.1429 660.88 37.2979 660.473 37.2979Z" fill="#362D60"/>
<path d="M647.31 30.7981H432.059C431.181 30.7981 430.469 30.0851 430.469 29.2091C430.469 28.3321 431.181 27.6191 432.059 27.6191H647.31C648.188 27.6191 648.9 28.3321 648.9 29.2091C648.899 30.0851 648.188 30.7981 647.31 30.7981Z" fill="#362D60"/>
<path d="M337.485 25.5673V32.8493C337.485 34.4773 336.16 35.8023 334.532 35.8023H327.25C325.622 35.8023 324.297 34.4773 324.297 32.8493V25.5673C324.297 23.9393 325.622 22.6143 327.25 22.6143H334.532C336.159 22.6143 337.485 23.9393 337.485 25.5673Z" fill="#E294AE"/>
<path d="M361.461 25.5673V32.8493C361.461 34.4773 360.136 35.8023 358.508 35.8023H351.226C349.598 35.8023 348.273 34.4773 348.273 32.8493V25.5673C348.273 23.9393 349.598 22.6143 351.226 22.6143H358.508C360.136 22.6143 361.461 23.9393 361.461 25.5673Z" fill="white"/>
<path d="M385.43 25.5673V32.8493C385.43 34.4773 384.105 35.8023 382.477 35.8023H375.195C373.567 35.8023 372.242 34.4773 372.242 32.8493V25.5673C372.242 23.9393 373.567 22.6143 375.195 22.6143H382.477C384.105 22.6143 385.43 23.9393 385.43 25.5673Z" fill="#50C7EB"/>
<path d="M334.528 37.3924H327.246C324.741 37.3924 322.703 35.3564 322.703 32.8504V25.5684C322.703 23.0624 324.741 21.0264 327.246 21.0264H334.528C337.034 21.0264 339.072 23.0624 339.072 25.5684V32.8504C339.072 35.3554 337.034 37.3924 334.528 37.3924ZM327.246 24.2044C326.495 24.2044 325.882 24.8154 325.882 25.5684V32.8504C325.882 33.6024 326.494 34.2134 327.246 34.2134H334.528C335.281 34.2134 335.893 33.6024 335.893 32.8504V25.5684C335.893 24.8154 335.281 24.2044 334.528 24.2044H327.246Z" fill="#362D60"/>
<path d="M358.505 37.3924H351.223C348.718 37.3924 346.68 35.3564 346.68 32.8504V25.5684C346.68 23.0624 348.718 21.0264 351.223 21.0264H358.505C361.011 21.0264 363.049 23.0624 363.049 25.5684V32.8504C363.049 35.3554 361.011 37.3924 358.505 37.3924ZM351.223 24.2044C350.472 24.2044 349.859 24.8154 349.859 25.5684V32.8504C349.859 33.6024 350.471 34.2134 351.223 34.2134H358.505C359.258 34.2134 359.87 33.6024 359.87 32.8504V25.5684C359.87 24.8154 359.258 24.2044 358.505 24.2044H351.223Z" fill="#50C7EB"/>
<path d="M382.474 37.3924H375.191C372.686 37.3924 370.648 35.3564 370.648 32.8504V25.5684C370.648 23.0624 372.686 21.0264 375.191 21.0264H382.474C384.979 21.0264 387.017 23.0624 387.017 25.5684V32.8504C387.017 35.3554 384.979 37.3924 382.474 37.3924ZM375.191 24.2044C374.44 24.2044 373.827 24.8154 373.827 25.5684V32.8504C373.827 33.6024 374.439 34.2134 375.191 34.2134H382.474C383.225 34.2134 383.838 33.6024 383.838 32.8504V25.5684C383.838 24.8154 383.226 24.2044 382.474 24.2044H375.191Z" fill="#362D60"/>
<path d="M681.944 373.893H681.592C681.146 373.893 680.721 373.707 680.421 373.376L617.092 304.224L549.91 373.411C549.611 373.719 549.2 373.893 548.77 373.893H491.33C490.881 373.893 490.452 373.702 490.15 373.369L418.298 293.825L377.876 329.142C377.215 329.721 376.212 329.651 375.634 328.991C375.057 328.33 375.123 327.327 375.784 326.748L417.384 290.402C418.035 289.831 419.026 289.888 419.608 290.534L492.037 370.713H548.098L615.986 300.799C616.29 300.486 616.65 300.233 617.15 300.317C617.587 300.325 618.002 300.511 618.298 300.834L681.527 369.877V321.15L641.137 277.048C640.568 276.427 640.584 275.471 641.17 274.867L681.527 233.303V186.074L619.04 250.425C618.735 250.738 618.399 250.837 617.876 250.907C617.439 250.899 617.024 250.713 616.728 250.39L549.59 177.09C549.301 176.775 549.152 176.357 549.175 175.928C549.199 175.501 549.394 175.101 549.717 174.82L681.527 59.6658V58.0188H633.395L519.27 157.725C518.981 157.978 518.608 158.117 518.223 158.117H458.98C458.102 158.117 457.389 157.404 457.389 156.527V58.0208H424.493V156.53C424.493 157.407 423.78 158.12 422.902 158.12H316.241V191.016H476.921C477.583 191.016 478.175 191.426 478.408 192.047C478.641 192.668 478.466 193.368 477.967 193.803L357.805 298.768C357.142 299.347 356.136 299.277 355.561 298.616C354.984 297.955 355.052 296.952 355.712 296.373L472.684 194.193H314.651C313.773 194.193 313.062 193.48 313.062 192.604V156.529C313.062 155.652 313.773 154.94 314.651 154.94H421.312V56.4308C421.312 55.5538 422.024 54.8418 422.902 54.8418H458.978C459.856 54.8418 460.567 55.5548 460.567 56.4308V154.94H517.626L631.751 55.2338C632.04 54.9808 632.411 54.8418 632.796 54.8418H683.114C683.992 54.8418 684.704 55.5548 684.704 56.4308V60.3898C684.704 60.8488 684.505 61.2838 684.16 61.5868L553.03 176.145L617.931 247.001L681.973 181.048C682.425 180.586 683.113 180.437 683.71 180.683C684.31 180.926 684.702 181.508 684.702 182.156V233.95C684.702 234.362 684.541 234.76 684.252 235.058L644.489 276.008L684.285 319.459C684.553 319.752 684.702 320.135 684.702 320.532V371.131C684.704 372.654 683.466 373.893 681.944 373.893ZM519.978 351.754C519.968 351.754 519.959 351.754 519.949 351.754C519.509 351.746 519.093 351.555 518.798 351.23L444.421 268.937C444.135 268.622 443.989 268.204 444.014 267.777C444.039 267.352 444.234 266.955 444.556 266.674L522.54 198.553C523.19 197.984 524.178 198.039 524.759 198.677L593.889 274.177C594.458 274.798 594.442 275.754 593.856 276.358L521.119 351.272C520.818 351.58 520.408 351.754 519.978 351.754ZM447.864 268.005L520.019 347.839L590.53 275.217L523.462 201.967L447.864 268.005Z" fill="#50C7EB"/>
<path d="M530.851 205.073C515.232 215.747 502.571 230.21 495.548 247.816L494.3 250.958L493.006 247.724C486.306 230.904 474.984 216.025 459.689 206.367C441.529 194.861 429.469 174.622 429.469 151.563C429.469 114.689 460.29 84.9769 497.627 86.8709C529.234 88.4429 555.665 113.487 558.761 145.002C561.21 169.909 549.566 192.273 530.851 205.073Z" fill="#FCED20"/>
<path d="M494.295 252.547C493.646 252.547 493.061 252.152 492.818 251.549L491.525 248.315C484.574 230.865 473.27 216.825 458.837 207.71C439.449 195.426 427.875 174.437 427.875 151.562C427.875 133.195 435.209 116.108 448.528 103.449C461.833 90.8003 479.274 84.3323 497.704 85.2843C530.235 86.9013 557.162 112.507 560.339 144.844C562.724 169.107 551.768 192.689 531.745 206.384H531.744C515.589 217.426 503.582 231.956 497.02 248.405L495.773 251.544C495.532 252.15 494.946 252.547 494.295 252.547ZM494.213 88.3733C477.917 88.3733 462.583 94.4753 450.717 105.754C438.037 117.807 431.054 134.075 431.054 151.562C431.054 173.341 442.075 193.327 460.536 205.022C475.41 214.415 487.075 228.808 494.291 246.668C501.136 229.861 513.456 215.034 529.95 203.761C549.014 190.719 559.447 168.265 557.174 145.157C554.15 114.375 528.515 89.9983 497.543 88.4583C496.431 88.4013 495.319 88.3733 494.213 88.3733Z" fill="#362D60"/>
<path d="M534.932 151.563C534.932 174.032 516.725 192.21 494.285 192.21C471.816 192.21 453.609 174.032 453.609 151.563C453.609 129.123 471.816 110.916 494.285 110.916C516.725 110.916 534.932 129.123 534.932 151.563Z" fill="white"/>
<path d="M494.288 193.799C470.983 193.799 452.023 174.851 452.023 151.562C452.023 128.273 470.983 109.325 494.288 109.325C517.577 109.325 536.524 128.273 536.524 151.562C536.524 174.851 517.577 193.799 494.288 193.799ZM494.288 112.505C472.736 112.505 455.202 130.027 455.202 151.563C455.202 173.099 472.736 190.621 494.288 190.621C515.824 190.621 533.345 173.099 533.345 151.563C533.344 130.027 515.824 112.505 494.288 112.505Z" fill="#362D60"/>
<path d="M758.902 110.669C758.902 117.219 756.237 123.172 751.927 127.482C747.646 131.792 741.691 134.457 735.113 134.457H609.679C596.551 134.457 585.891 123.797 585.891 110.669C585.891 104.091 588.556 98.1369 592.866 93.8559C597.176 89.5459 603.102 86.8809 609.679 86.8809H735.114C748.27 86.8809 758.902 97.5139 758.902 110.669Z" fill="#F5B0BD"/>
<path d="M735.11 136.047H609.675C595.682 136.047 584.297 124.662 584.297 110.669C584.297 103.869 586.941 97.496 591.742 92.727C596.535 87.933 602.906 85.291 609.675 85.291H735.11C749.103 85.291 760.488 96.676 760.488 110.669C760.488 117.437 757.845 123.808 753.048 128.606C748.282 133.404 741.91 136.047 735.11 136.047ZM609.675 88.47C603.755 88.47 598.183 90.782 593.986 94.98C589.787 99.15 587.476 104.721 587.476 110.669C587.476 122.908 597.434 132.868 609.675 132.868H735.11C741.057 132.868 746.629 130.558 750.797 126.363C754.998 122.161 757.309 116.587 757.309 110.669C757.309 98.43 747.351 88.47 735.11 88.47H609.675Z" fill="#362D60"/>
<path d="M609.572 119.22C607.75 119.22 606.316 118.684 605.269 117.615C604.386 116.723 603.945 115.695 603.945 114.53C603.945 113.934 604.082 113.44 604.354 113.045C604.627 112.653 605.004 112.456 605.484 112.456C606.13 112.456 606.603 112.891 606.905 113.762C607.314 114.927 608.239 115.511 609.681 115.511C610.915 115.511 612.109 115.156 613.264 114.445C614.462 113.715 615.061 112.915 615.061 112.043C615.061 110.851 614.689 110.064 613.942 109.684C613.412 109.411 612.346 109.249 610.747 109.202C609.505 109.165 608.394 108.857 607.411 108.278C606.083 107.493 605.432 106.366 605.453 104.898C605.474 103.05 606.22 101.356 607.691 99.8188C609.161 98.2788 610.783 97.5088 612.555 97.5088C613.258 97.5088 614.126 97.7228 615.158 98.1468C616.442 98.6778 617.084 99.2888 617.084 99.9798C617.084 100.474 616.955 100.909 616.697 101.289C616.41 101.714 616.041 101.927 615.589 101.927C615.251 101.927 614.748 101.833 614.078 101.644C613.406 101.453 612.899 101.358 612.555 101.358C611.629 101.368 610.751 101.661 609.919 102.24C609.058 102.826 608.627 103.467 608.627 104.157C608.627 104.517 608.757 104.813 609.019 105.046C609.281 105.277 609.673 105.441 610.198 105.535C611.116 105.602 612.031 105.669 612.941 105.734C614.534 105.895 615.793 106.487 616.719 107.51C617.737 108.647 618.246 110.22 618.246 112.226C618.246 114.67 617.192 116.523 615.083 117.782C613.475 118.741 611.638 119.22 609.572 119.22Z" fill="#362D60"/>
<path d="M625.226 119.007C623.511 119.007 622.109 118.468 621.019 117.388C619.813 116.193 619.211 114.515 619.211 112.344C619.211 109.947 619.688 107.921 620.643 106.264C621.704 104.426 623.135 103.507 624.936 103.507C626.184 103.507 627.22 103.773 628.045 104.302C629.128 105.005 629.669 106.093 629.669 107.57C629.669 108.613 629.228 109.537 628.345 110.342C627.944 110.709 627.137 111.251 625.925 111.961L622.299 114.077C622.643 114.569 623.059 114.939 623.547 115.185C624.035 115.433 624.594 115.555 625.226 115.555C626.187 115.555 627.001 115.294 627.669 114.773C628.264 114.311 628.741 114.078 629.099 114.078C629.845 114.078 630.218 114.557 630.218 115.514C630.218 116.594 629.619 117.474 628.421 118.157C627.416 118.724 626.352 119.007 625.226 119.007ZM624.935 106.944C624.268 106.944 623.697 107.24 623.224 107.826C622.751 108.415 622.371 109.294 622.084 110.469C622.894 110.005 623.701 109.545 624.504 109.091C625.473 108.515 626.244 107.978 626.818 107.487C626.337 107.125 625.71 106.944 624.935 106.944Z" fill="#362D60"/>
<path d="M641.414 119.135C641.085 119.135 640.561 118.713 639.843 117.871C639.184 118.286 638.602 118.601 638.101 118.815C637.598 119.029 637.171 119.135 636.821 119.135C635.091 119.135 633.795 118.524 632.93 117.302C632.066 116.08 631.633 114.252 631.633 111.818C631.633 109.536 632.271 107.581 633.549 105.957C634.826 104.333 636.353 103.521 638.132 103.521C638.813 103.521 639.602 103.774 640.499 104.281C641.582 104.89 642.123 105.597 642.123 106.405C642.123 106.743 642.041 107.038 641.876 107.292C641.804 107.667 641.748 108.136 641.71 108.705C641.67 109.271 641.65 109.934 641.65 110.694C641.65 112.487 641.747 113.776 641.941 114.563C641.962 114.648 642.127 115.134 642.435 116.026C642.716 116.833 642.855 117.293 642.855 117.404C642.855 117.901 642.71 118.313 642.419 118.641C642.129 118.969 641.794 119.135 641.414 119.135ZM638.745 109.543C638.745 109.24 638.761 108.892 638.793 108.5C638.825 108.108 638.874 107.668 638.938 107.186C638.795 107.092 638.667 107.022 638.557 106.98C638.445 106.938 638.351 106.915 638.271 106.915C637.296 106.915 636.442 107.419 635.71 108.428C634.979 109.436 634.612 110.604 634.612 111.93C634.612 113.199 634.785 114.155 635.129 114.794C635.473 115.432 635.99 115.753 636.679 115.753C637.124 115.753 637.545 115.656 637.943 115.462C638.342 115.268 638.715 114.98 639.067 114.603C638.853 112.347 638.745 110.661 638.745 109.543Z" fill="#362D60"/>
<path d="M653.386 108.111C653.321 109.559 652.822 110.284 651.89 110.284C650.986 110.284 650.535 109.668 650.535 108.436L650.48 107C648.867 107.343 647.711 108.436 647.015 110.283L647.026 117.429C647.026 117.97 646.886 118.417 646.606 118.773C646.327 119.128 645.971 119.304 645.541 119.304C645.096 119.304 644.752 119.115 644.508 118.735C644.278 118.395 644.164 117.96 644.164 117.429V108.123C644.164 107.83 644.172 107.393 644.185 106.809C644.2 106.228 644.207 105.788 644.207 105.495C644.207 104.963 644.326 104.521 644.567 104.166C644.808 103.811 645.149 103.635 645.595 103.635C646.391 103.635 646.864 104.174 647.014 105.254C648.284 104.002 649.694 103.379 651.242 103.379C652.678 103.379 653.394 104.638 653.394 107.157C653.396 107.642 653.392 107.96 653.386 108.111Z" fill="#362D60"/>
<path d="M659.909 119.248C658.332 119.248 657.008 118.657 655.939 117.472C654.813 116.223 654.25 114.574 654.25 112.53C654.25 110.645 654.755 108.698 655.768 106.688C656.915 104.398 658.249 103.251 659.77 103.251C660.516 103.251 661.387 103.517 662.384 104.046C663.596 104.702 664.203 105.454 664.203 106.306C664.203 106.771 664.08 107.183 663.837 107.543C663.579 107.93 663.245 108.124 662.836 108.124C662.528 108.124 662.157 107.905 661.722 107.463C661.289 107.023 660.638 106.802 659.77 106.802C659.217 106.802 658.619 107.517 657.973 108.948C657.356 110.331 657.048 111.524 657.048 112.529C657.048 113.522 657.32 114.305 657.865 114.871C658.382 115.412 659.063 115.683 659.909 115.683C660.39 115.683 660.978 115.44 661.674 114.958C662.371 114.474 662.812 114.233 662.998 114.233C663.385 114.233 663.717 114.417 663.994 114.787C664.27 115.157 664.408 115.579 664.408 116.051C664.408 116.791 663.798 117.529 662.579 118.269C661.487 118.922 660.598 119.248 659.909 119.248Z" fill="#362D60"/>
<path d="M669.476 105.354C670 104.671 670.56 104.162 671.159 103.827C671.758 103.489 672.399 103.323 673.081 103.323C674.308 103.323 675.19 103.777 675.727 104.686C676.129 105.366 676.373 106.415 676.458 107.825C676.494 108.99 676.533 110.16 676.576 111.334C676.69 112.859 676.763 113.788 676.792 114.118C676.893 115.171 677.014 116.09 677.158 116.875C677.193 117.074 677.211 117.25 677.211 117.402C677.211 117.931 677.057 118.371 676.753 118.716C676.448 119.061 676.092 119.235 675.684 119.235C674.959 119.235 674.489 118.761 674.275 117.814C674.102 117.047 673.945 115.966 673.801 114.573C673.672 113.239 673.607 112.139 673.607 111.277C673.607 111.041 673.616 110.683 673.633 110.204C673.65 109.727 673.661 109.369 673.661 109.131C673.661 108.431 673.652 108.023 673.638 107.909C673.573 107.39 673.388 107.129 673.08 107.129C672.284 107.129 671.562 107.611 670.917 108.577C670.587 109.061 670.135 109.98 669.56 111.334C669.56 114.764 669.436 116.828 669.185 117.528C668.906 118.305 668.461 118.693 667.851 118.693C667.449 118.693 667.092 118.517 666.781 118.161C666.468 117.806 666.312 117.366 666.312 116.847C666.312 116.666 666.35 116.415 666.43 116.092C666.48 115.886 666.524 114.607 666.56 112.257C666.524 110.352 666.531 107.185 666.581 102.752L666.602 102.283C666.644 101.165 666.667 100.418 666.667 100.038C666.667 99.7448 666.633 99.3128 666.565 98.7388C666.497 98.1648 666.463 97.7328 666.463 97.4378C666.463 96.8988 666.61 96.4568 666.904 96.1118C667.198 95.7638 667.554 95.5928 667.969 95.5928C668.679 95.5928 669.156 96.0948 669.4 97.0978C669.537 97.6668 669.604 98.5378 669.604 99.7128C669.604 100.659 669.583 101.62 669.539 102.596C669.496 103.526 669.476 104.445 669.476 105.354Z" fill="#362D60"/>
<path d="M682.651 119.831C682.17 119.831 681.754 119.635 681.403 119.242C681.052 118.847 680.875 118.405 680.875 117.913C680.875 117.411 681.051 116.957 681.403 116.554C681.755 116.152 682.171 115.951 682.651 115.951C683.16 115.951 683.58 116.142 683.91 116.52C684.239 116.9 684.404 117.364 684.404 117.913C684.404 118.415 684.233 118.859 683.887 119.247C683.544 119.638 683.132 119.831 682.651 119.831Z" fill="#362D60"/>
<path d="M692.206 119.831C691.726 119.831 691.309 119.635 690.958 119.242C690.607 118.847 690.43 118.405 690.43 117.913C690.43 117.411 690.606 116.957 690.958 116.554C691.309 116.152 691.726 115.951 692.206 115.951C692.715 115.951 693.135 116.142 693.465 116.52C693.794 116.9 693.959 117.364 693.959 117.913C693.959 118.415 693.788 118.859 693.442 119.247C693.099 119.638 692.686 119.831 692.206 119.831Z" fill="#362D60"/>
<path d="M701.76 119.831C701.279 119.831 700.863 119.635 700.512 119.242C700.16 118.847 699.984 118.405 699.984 117.913C699.984 117.411 700.16 116.957 700.512 116.554C700.863 116.152 701.279 115.951 701.76 115.951C702.269 115.951 702.689 116.142 703.019 116.52C703.348 116.9 703.513 117.364 703.513 117.913C703.513 118.415 703.342 118.859 702.996 119.247C702.653 119.638 702.241 119.831 701.76 119.831Z" fill="#362D60"/>
<path d="M711.315 119.831C710.834 119.831 710.418 119.635 710.067 119.242C709.716 118.847 709.539 118.405 709.539 117.913C709.539 117.411 709.715 116.957 710.067 116.554C710.419 116.152 710.835 115.951 711.315 115.951C711.824 115.951 712.244 116.142 712.574 116.52C712.903 116.9 713.068 117.364 713.068 117.913C713.068 118.415 712.897 118.859 712.551 119.247C712.208 119.638 711.795 119.831 711.315 119.831Z" fill="#362D60"/>
<path d="M720.87 119.831C720.39 119.831 719.973 119.635 719.622 119.242C719.271 118.847 719.094 118.405 719.094 117.913C719.094 117.411 719.27 116.957 719.622 116.554C719.973 116.152 720.39 115.951 720.87 115.951C721.379 115.951 721.799 116.142 722.129 116.52C722.458 116.9 722.623 117.364 722.623 117.913C722.623 118.415 722.452 118.859 722.106 119.247C721.763 119.638 721.351 119.831 720.87 119.831Z" fill="#362D60"/>
<path d="M730.424 119.831C729.943 119.831 729.527 119.635 729.176 119.242C728.824 118.847 728.648 118.405 728.648 117.913C728.648 117.411 728.824 116.957 729.176 116.554C729.527 116.152 729.943 115.951 730.424 115.951C730.933 115.951 731.353 116.142 731.683 116.52C732.012 116.9 732.177 117.364 732.177 117.913C732.177 118.415 732.006 118.859 731.66 119.247C731.317 119.638 730.905 119.831 730.424 119.831Z" fill="#362D60"/>
<path d="M239.979 248.251L42.2035 328.168C25.8505 321.996 12.3875 308.56 6.21554 292.233C0.0445402 275.879 1.24254 256.896 9.44454 241.48C24.5475 213.044 60.1445 199.035 72.5145 169.323C79.2325 153.152 77.9045 134.899 81.0035 117.66C85.9775 90.2659 103.893 64.5119 129.777 54.2249C154.489 44.4349 185.815 51.3619 201.726 72.3759C212.923 65.8139 228.079 70.3959 235.839 81.8799C242.896 92.3479 244.745 105.447 244.484 118.05C244.224 130.653 242.323 143.257 243.391 155.808C244.823 172.63 251.542 188.515 254.874 205.05C258.207 221.585 252.869 242.339 239.979 248.251Z" fill="#1E1238"/>
<path d="M382.657 462.25L378.269 525.943L366.939 536.752L353.08 544.661L350.179 569.503L350.08 570.421L359.179 637.403H56.3359L60.3029 559.835L82.3189 418.517L85.6909 379.592C85.6909 379.592 96.2279 340.866 96.2279 337.643C96.2279 334.395 116.781 311.015 116.781 311.015L126.524 294.083L137.582 258.53L137.805 258.456L159.647 250.15L216.844 257.588L217.712 258.084L241.711 271.571C241.711 271.571 250.884 280.199 253.958 282.529C257.008 284.885 268.338 295.049 268.338 295.049L330.964 365.658L354.343 387.252L377.896 446.978L382.657 462.25Z" fill="#8069AD"/>
<path d="M164.336 548.384L233.071 562.636L252.28 520.923L251.052 498.942L209.872 483.381L189.363 489.977L168.507 511.537L164.336 548.384Z" fill="#F5B0BD"/>
<path d="M215.172 257.592L242.354 262.852C306.557 275.276 361.974 319.714 391.209 383.298C413.123 430.957 431.562 498.804 416.708 542.887C400.875 589.876 215.172 562.631 215.172 562.631L233.09 488.075L348.442 489.386L326.212 414.303" fill="#8069AD"/>
<path d="M348.443 490.977C347.757 490.977 347.124 490.53 346.921 489.839L324.691 414.756C324.441 413.914 324.922 413.03 325.764 412.779C326.603 412.528 327.491 413.01 327.739 413.852L349.969 488.935C350.219 489.777 349.738 490.661 348.896 490.912C348.744 490.957 348.593 490.977 348.443 490.977Z" fill="#362D60"/>
<path d="M359.188 490.977C359.183 490.977 359.177 490.977 359.172 490.977L233.073 489.666C232.195 489.656 231.491 488.938 231.5 488.059C231.509 487.187 232.219 486.487 233.089 486.487C233.094 486.487 233.1 486.487 233.105 486.487L359.204 487.798C360.082 487.808 360.786 488.526 360.777 489.405C360.769 490.276 360.058 490.977 359.188 490.977Z" fill="#362D60"/>
<path d="M320.98 572.063C269.236 572.063 215.592 564.302 214.952 564.207C214.084 564.08 213.483 563.273 213.611 562.404C213.738 561.535 214.551 560.924 215.414 561.063C216.172 561.172 292.012 572.135 350.063 567.918C350.952 567.868 351.701 568.514 351.764 569.388C351.827 570.262 351.169 571.025 350.294 571.087C340.858 571.774 330.951 572.063 320.98 572.063Z" fill="#362D60"/>
<path d="M258.559 568.148C258.533 568.148 258.507 568.148 258.48 568.145C257.603 568.103 256.928 567.358 256.971 566.481L260.77 488.957C260.812 488.078 261.514 487.377 262.435 487.447C263.312 487.489 263.987 488.234 263.944 489.111L260.145 566.635C260.103 567.488 259.4 568.148 258.559 568.148Z" fill="white"/>
<path d="M239.466 567.699C239.428 567.699 239.388 567.697 239.349 567.694C238.474 567.632 237.815 566.869 237.879 565.993L243.693 486.494C243.758 485.62 244.536 484.949 245.394 485.026C246.27 485.088 246.928 485.851 246.864 486.727L241.05 566.226C240.989 567.061 240.292 567.699 239.466 567.699Z" fill="white"/>
<path d="M380.97 343.543C381.491 347.089 379.557 350.486 377.474 353.336C367.631 366.823 352.83 375.427 337.632 382.839C334.533 384.327 331.583 386.186 328.856 388.294C327.319 389.508 325.856 390.823 324.517 392.236C323.6 393.128 322.757 394.07 321.939 395.037L309.543 409.839L271.734 365.088C273.197 363.799 274.585 362.411 275.825 360.924C279.221 357.007 281.825 352.469 283.511 347.636C284.279 345.379 284.85 343.049 285.172 340.669C285.296 339.726 285.469 338.908 285.668 338.164C287.875 330.181 292.635 323.189 297.221 316.397C301.832 309.529 306.444 302.438 308.204 294.38C309.047 290.364 309.27 286.125 311.75 282.629C313.089 280.77 315.097 279.431 317.378 279.307C322.931 279.083 325.46 285.678 325.808 291.058C326.329 299.537 326.676 308.711 323.279 316.496C336.989 299.239 352.509 283.372 369.443 269.265C371.079 267.926 372.79 266.538 374.823 265.844C376.831 265.175 379.311 265.274 380.922 266.687C383.724 269.142 382.658 273.729 381.021 277.1C376.038 287.587 364.162 301.521 353.7 312.578L354.469 311.809C357.469 310.347 361.337 311.833 363.097 314.66C364.857 317.511 364.609 321.28 363.072 324.205C362.775 324.75 362.452 325.321 362.056 325.89L362.552 325.369C364.486 324.427 366.816 324.898 368.8 325.692C370.709 326.485 372.593 327.576 373.734 329.312C375.767 332.411 374.75 336.774 372.37 339.625L373.238 338.882C376.259 337.023 380.424 340.022 380.97 343.543Z" fill="#F5B0BD"/>
<path d="M342.906 324.357C342.655 324.357 342.404 324.258 342.217 324.061C341.853 323.681 341.867 323.077 342.247 322.712C344.995 320.087 349.344 315.81 354.46 310.353C354.818 309.973 355.422 309.948 355.807 310.311C356.192 310.671 356.211 311.275 355.851 311.66C350.706 317.146 346.33 321.448 343.566 324.093C343.38 324.27 343.143 324.357 342.906 324.357Z" fill="#1E1238"/>
<path d="M355.322 333.437C354.984 333.437 354.658 333.258 354.484 332.94C354.232 332.478 354.401 331.899 354.864 331.646C357.695 330.099 360.825 326.433 362.213 323.783C362.458 323.318 363.037 323.132 363.499 323.381C363.966 323.624 364.146 324.201 363.901 324.668C362.402 327.529 359.046 331.533 355.777 333.321C355.633 333.4 355.476 333.437 355.322 333.437Z" fill="#1E1238"/>
<path d="M363.908 347.946C363.554 347.946 363.215 347.75 363.05 347.412C362.819 346.938 363.015 346.366 363.488 346.135C366.817 344.506 369.589 341.476 371.632 339.017C371.967 338.607 372.57 338.553 372.976 338.893C373.381 339.228 373.437 339.829 373.1 340.234C370.934 342.839 367.981 346.061 364.325 347.849C364.191 347.914 364.048 347.946 363.908 347.946Z" fill="#1E1238"/>
<path d="M144.836 255.6C144.836 280.998 212.074 290.149 213.004 260.641V204.765H146.891C149.916 223.028 148.558 233.265 144.836 255.6Z" fill="#F5B0BD"/>
<path d="M157.523 223.236C162.481 234.908 172.18 244.342 183.906 249.246C193.074 253.03 203.307 253.99 213.007 252.018V232.191C194.353 236.827 173.779 233.576 157.523 223.236Z" fill="#E294AE"/>
<path d="M113.116 198.211C119.312 202.327 126.859 203.855 134.251 204.54C138.147 214.19 144.83 223.109 153.151 228.442C162.535 234.75 201.508 255.619 223.617 226.561C230.765 217.155 235.037 205.846 236.741 194.161C240.481 168.422 236.21 142.241 231.961 116.59C222.378 123.164 210.715 125.531 199.14 124.425C187.565 123.34 176.433 118.051 168.267 109.774C169.551 118.915 165.036 128.32 157.865 134.141C150.672 139.939 140.404 141.666 131.728 138.501C133.123 152.953 133.83 165.346 131.197 179.643C128.696 173.646 124.38 167.559 117.985 166.541C110.637 165.346 103.577 172.118 102.958 179.532C102.316 186.946 106.919 194.094 113.116 198.211Z" fill="#F5B0BD"/>
<path d="M202.094 195.446C200.434 195.446 198.845 194.942 197.58 193.993C196.878 193.464 196.737 192.468 197.265 191.768C197.79 191.063 198.789 190.926 199.49 191.45C200.44 192.168 201.749 192.416 203.08 192.173C204.414 191.917 205.533 191.189 206.152 190.176C207.962 187.216 205.951 183.237 205.29 182.087C204.632 180.94 203.861 179.859 203.044 178.717C201.844 177.038 200.605 175.302 199.726 173.31C197.364 167.963 198.099 161.838 198.689 156.918C198.795 156.049 199.589 155.396 200.457 155.53C201.327 155.634 201.95 156.424 201.845 157.296C201.273 162.067 200.623 167.476 202.634 172.026C203.38 173.72 204.473 175.25 205.63 176.869C206.456 178.026 207.309 179.221 208.047 180.502C210.396 184.595 210.702 188.83 208.864 191.835C207.779 193.611 205.889 194.87 203.677 195.295C203.148 195.396 202.618 195.446 202.094 195.446Z" fill="#362D60"/>
<path d="M184.597 163.045C184.614 167.444 183.162 170.923 181.31 170.93C179.535 170.937 177.978 167.47 177.961 163.071C177.944 158.749 179.473 155.193 181.248 155.186C183.1 155.179 184.58 158.723 184.597 163.045Z" fill="#362D60"/>
<path d="M226.089 157.075C226.106 161.474 224.654 164.953 222.802 164.96C221.027 164.967 219.47 161.5 219.453 157.101C219.436 152.779 220.965 149.223 222.74 149.216C224.593 149.208 226.072 152.753 226.089 157.075Z" fill="#362D60"/>
<path d="M198.312 215.782C195.034 215.782 191.753 215.139 188.755 213.865C183.485 211.622 179.008 207.39 176.47 202.254C176.081 201.469 176.404 200.515 177.191 200.125C177.978 199.735 178.931 200.06 179.321 200.848C181.527 205.311 185.418 208.989 189.999 210.939C194.581 212.886 199.927 213.14 204.675 211.634C205.518 211.371 206.405 211.835 206.671 212.667C206.937 213.504 206.473 214.398 205.636 214.664C203.282 215.412 200.798 215.782 198.312 215.782Z" fill="#362D60"/>
<path d="M112.976 185.953C112.254 185.953 111.603 185.459 111.43 184.726C110.902 182.483 110.932 180.457 111.516 178.706C112.272 176.431 114.036 174.665 116.118 174.096C118.636 173.43 121.391 174.632 122.393 176.875C122.751 177.677 122.391 178.616 121.588 178.974C120.785 179.329 119.847 178.971 119.489 178.172C119.129 177.365 117.943 176.886 116.952 177.166C115.9 177.452 114.95 178.45 114.532 179.709C114.136 180.896 114.135 182.339 114.525 184.001C114.726 184.855 114.196 185.71 113.341 185.911C113.218 185.941 113.096 185.953 112.976 185.953Z" fill="#1E1238"/>
<path d="M172.751 190.604C160.051 190.604 149.227 179.457 148.306 165.08C147.844 157.89 149.894 150.963 154.076 145.579C158.303 140.135 164.199 136.906 170.678 136.491C177.149 136.071 183.42 138.52 188.312 143.381C193.154 148.192 196.073 154.798 196.534 161.986C197.49 176.885 187.448 189.703 174.145 190.56C173.677 190.589 173.212 190.604 172.751 190.604ZM151.477 164.876C152.32 178.027 162.384 188.18 173.94 187.385C185.493 186.642 194.204 175.339 193.361 162.188C192.95 155.775 190.361 149.896 186.07 145.637C181.833 141.43 176.457 139.289 170.88 139.664C165.323 140.019 160.246 142.811 156.585 147.527C152.88 152.299 151.066 158.46 151.477 164.876Z" fill="#8069AD"/>
<path d="M228.258 187.044C215.558 187.044 204.735 175.898 203.814 161.52C203.352 154.33 205.401 147.403 209.584 142.018C213.81 136.574 219.706 133.345 226.185 132.93C232.678 132.515 238.927 134.962 243.82 139.82C248.662 144.631 251.581 151.237 252.042 158.425C252.997 173.327 242.953 186.145 229.652 186.999C229.185 187.029 228.72 187.044 228.258 187.044ZM206.986 161.316C207.829 174.467 217.898 184.595 229.448 183.825C241 183.082 249.712 171.779 248.87 158.629C248.459 152.216 245.87 146.337 241.579 142.078C237.341 137.868 231.945 135.722 226.388 136.105C220.831 136.46 215.754 139.252 212.095 143.968C208.389 148.738 206.575 154.9 206.986 161.316Z" fill="#8069AD"/>
<path d="M194.946 163.67C194.114 163.67 193.415 163.024 193.361 162.182C193.097 158.052 195.937 154.495 199.69 154.252C203.473 154.041 206.72 157.178 206.985 161.308C207.042 162.185 206.378 162.94 205.501 162.997C204.614 163.111 203.869 162.389 203.813 161.512C203.66 159.133 201.923 157.282 199.893 157.426C197.889 157.555 196.381 159.597 196.533 161.978C196.589 162.855 195.925 163.61 195.049 163.667C195.015 163.67 194.98 163.67 194.946 163.67Z" fill="#8069AD"/>
<path d="M150.527 158.42C150.511 158.42 150.495 158.42 150.479 158.42L132.893 157.891C132.015 157.864 131.325 157.131 131.352 156.254C131.377 155.375 132.105 154.662 132.987 154.712L150.572 155.241C151.45 155.268 152.14 156.001 152.113 156.878C152.089 157.739 151.382 158.42 150.527 158.42Z" fill="#8069AD"/>
<path d="M324.517 392.236C323.6 393.128 322.757 394.07 321.939 395.037L309.543 409.839L271.734 365.088C273.197 363.799 274.585 362.411 275.825 360.924L324.517 392.236Z" fill="#1E1238"/>
<path d="M140.413 257.592L76.6139 278.611C20.4379 297.119 -11.3651 356.203 3.75392 413.384C24.3199 491.165 58.0629 586.176 102 596.714C171.084 613.283 319.286 413.573 319.286 413.573L269.621 353.431L119.283 467.495" fill="#8069AD"/>
<path d="M184.95 293.033C161.564 293.033 134.795 281.581 131.249 260.358C131.104 259.491 131.689 258.672 132.554 258.528C133.397 258.372 134.239 258.968 134.383 259.832C137.643 279.334 162.868 289.854 184.947 289.854C208.004 289.854 223.258 278.519 223.811 260.979L223.81 259.571C223.81 258.694 224.522 257.981 225.4 257.981C226.278 257.981 226.99 258.694 226.99 259.571V261.029C226.378 280.491 209.877 293.033 184.95 293.033Z" fill="white"/>
<path d="M136.149 456.29C135.593 456.29 135.053 455.997 134.761 455.478L84.3196 365.461C83.8916 364.696 84.1646 363.725 84.9296 363.298C85.6956 362.866 86.6626 363.142 87.0936 363.907L137.535 453.924C137.963 454.689 137.69 455.66 136.925 456.087C136.679 456.226 136.412 456.29 136.149 456.29Z" fill="#362D60"/>
<path d="M119.286 469.083C118.805 469.083 118.331 468.867 118.018 468.455C117.488 467.755 117.624 466.759 118.323 466.227L268.66 352.163C269.36 351.629 270.356 351.768 270.888 352.468C271.418 353.168 271.282 354.164 270.583 354.696L120.246 468.761C119.957 468.979 119.621 469.083 119.286 469.083Z" fill="#362D60"/>
<path d="M110.614 599.288C107.502 599.288 104.512 598.96 101.641 598.27C87.1696 594.79 72.8146 582.149 58.9726 560.695C58.4966 559.957 58.7096 558.974 59.4466 558.497C60.1856 558.025 61.1686 558.234 61.6446 558.971C75.0276 579.714 88.7336 591.897 102.382 595.18C169.625 611.264 316.54 414.624 318.017 412.635C318.541 411.927 319.539 411.786 320.241 412.305C320.945 412.829 321.093 413.825 320.57 414.528C314.744 422.379 182.589 599.288 110.614 599.288Z" fill="#362D60"/>
<path d="M308.492 429.231C308.006 429.231 307.527 429.01 307.214 428.59L258.93 363.576C258.407 362.871 258.554 361.875 259.259 361.351C259.964 360.829 260.959 360.976 261.483 361.679L309.767 426.693C310.29 427.398 310.143 428.394 309.438 428.918C309.154 429.129 308.821 429.231 308.492 429.231Z" fill="white"/>
<path d="M296.863 443.865C296.371 443.865 295.887 443.639 295.577 443.209L244.187 372.53C243.67 371.82 243.828 370.826 244.537 370.31C245.25 369.796 246.242 369.95 246.757 370.663L298.147 441.343C298.664 442.053 298.507 443.047 297.797 443.563C297.514 443.765 297.187 443.865 296.863 443.865Z" fill="white"/>
</svg>
